<?xml version="1.0" standalone="no"?>
<!DOCTYPE svg PUBLIC "-//W3C//DTD SVG 20010904//EN"
 "http://www.w3.org/TR/2001/REC-SVG-20010904/DTD/svg10.dtd">
<svg version="1.0" xmlns="http://www.w3.org/2000/svg"
 width="640.000000pt" height="640.000000pt" viewBox="0 0 640.000000 640.000000"
 preserveAspectRatio="xMidYMid meet">
<metadata>
Created by potrace 1.11, written by Peter Selinger 2001-2013
</metadata>
<g transform="translate(0.000000,640.000000) scale(0.100000,-0.100000)"
fill="#000000" stroke="none">
<path d="M3005 6359 c-42 -10 -196 -69 -205 -80 -3 -3 -32 -21 -65 -41 -131
-79 -206 -180 -264 -355 -56 -169 -65 -219 -57 -347 6 -88 5 -108 -6 -103 -7
3 -21 8 -31 12 -10 4 -17 4 -16 -1 5 -31 -2 -46 -21 -41 -11 3 -20 1 -20 -5 0
-5 -15 2 -32 16 -18 15 -37 30 -43 34 -15 11 -42 3 -81 -23 -54 -37 -91 -41
-120 -14 -25 24 -31 58 -14 90 7 13 7 19 0 19 -14 0 -13 37 2 42 6 2 8 10 4
17 -5 7 -15 10 -23 7 -11 -4 -13 -2 -9 9 3 9 0 15 -9 15 -7 0 -19 16 -26 35
-11 29 -18 34 -48 37 -42 4 -111 -26 -111 -47 0 -17 -36 -39 -50 -30 -15 9 1
-26 22 -49 53 -59 53 -59 56 -42 2 9 9 16 16 16 7 0 25 9 38 20 l25 19 13 -24
c7 -14 22 -25 32 -25 14 0 18 -8 18 -35 0 -19 -4 -35 -10 -35 -5 0 -10 5 -10
11 0 6 -7 8 -17 5 -9 -4 -20 -1 -25 6 -5 8 -6 -5 -2 -28 5 -36 2 -48 -29 -92
-19 -29 -38 -69 -42 -91 -3 -22 -20 -65 -36 -97 -27 -52 -28 -58 -14 -74 15
-17 13 -21 -24 -60 -34 -35 -43 -41 -55 -31 -8 7 -20 10 -26 6 -5 -3 -10 -2
-10 4 0 5 -17 12 -38 16 -37 6 -37 6 -33 48 2 25 15 59 33 85 17 25 24 42 16
42 -7 0 3 13 22 30 19 16 31 29 26 30 -5 0 -3 7 4 15 15 18 5 35 -22 35 -17 0
-19 -4 -14 -25 l6 -25 -80 0 c-72 0 -84 -3 -120 -29 -22 -15 -36 -31 -33 -35
15 -14 -12 -4 -30 12 -15 12 -21 14 -24 5 -3 -7 -13 -13 -24 -13 -10 0 -19 -6
-19 -12 0 -7 -9 -2 -20 12 l-19 25 -28 -25 c-27 -24 -51 -42 -127 -94 -36 -24
-124 -133 -153 -189 -31 -61 -245 -287 -433 -457 -226 -205 -462 -452 -538
-562 l-32 -47 0 -665 0 -666 37 -16 c46 -19 190 -14 268 10 28 9 115 23 195
31 151 17 243 36 295 62 16 8 80 48 140 87 146 96 214 138 248 156 15 7 45 29
67 47 42 37 50 39 50 19 0 -13 40 -114 81 -205 11 -24 29 -66 40 -93 l19 -49
-35 -73 c-35 -74 -47 -159 -26 -181 27 -28 82 -142 83 -174 1 -36 -59 -215
-86 -256 -12 -18 -15 -104 -17 -471 -6 -1005 -6 -1070 15 -1193 19 -112 18
-141 -9 -203 -7 -17 75 -18 1648 -18 l1654 0 13 192 c7 106 28 294 46 418 30
200 35 264 45 575 13 375 9 442 -33 614 -20 79 -20 86 -5 135 10 31 17 83 16
125 -1 45 4 77 12 87 8 10 14 47 15 98 1 45 6 98 12 117 5 19 18 68 27 109 18
79 40 155 61 205 6 17 17 48 24 70 16 52 35 96 73 170 17 33 44 86 60 118 16
31 34 57 38 57 5 0 44 -35 87 -78 79 -80 147 -122 230 -141 27 -5 60 -25 94
-56 28 -25 66 -53 82 -62 17 -9 33 -19 36 -22 8 -11 121 -58 165 -70 22 -5 76
-17 120 -26 44 -9 128 -32 186 -51 113 -36 253 -59 300 -49 l29 7 0 548 c0
430 -3 549 -12 553 -10 3 -10 7 -1 19 11 12 7 18 -27 34 -44 21 -48 30 -23 50
17 13 17 13 -1 14 -15 0 -17 5 -12 28 4 15 8 36 10 46 4 32 24 30 46 -6 l20
-33 0 77 c0 67 -3 79 -22 95 -13 10 -43 43 -68 73 -24 30 -50 59 -57 63 -7 4
-13 14 -13 22 0 7 -7 21 -16 29 -14 14 -18 14 -42 -2 -15 -10 -36 -23 -47 -29
-11 -6 -20 -20 -19 -30 0 -15 -5 -19 -18 -15 -10 2 -18 11 -18 19 0 7 -7 25
-16 38 -15 24 -15 25 2 26 17 0 16 1 -2 9 -30 12 -38 28 -24 45 16 19 40 19
40 0 0 -10 11 -15 35 -15 39 0 45 16 18 42 -34 32 -53 55 -53 61 0 3 -18 25
-39 49 -22 23 -37 46 -34 51 3 4 -3 11 -13 13 -11 3 -28 20 -40 37 -11 18 -27
31 -35 30 -8 -1 -25 22 -43 58 -16 33 -30 58 -33 56 -10 -11 -155 152 -147
165 3 5 -6 19 -20 32 -19 15 -25 28 -20 40 6 15 3 17 -14 11 -18 -5 -22 -2
-23 17 -4 54 -17 98 -29 98 -4 0 -10 9 -13 20 -3 11 -12 20 -21 20 -9 0 -16 5
-16 10 0 6 -8 10 -19 10 -10 0 -21 9 -24 20 -3 14 -14 20 -31 20 -14 0 -26 5
-26 10 0 6 -6 10 -13 10 -7 0 -23 11 -35 25 -13 14 -27 23 -32 20 -6 -3 -10 3
-10 14 0 33 -44 131 -58 131 -7 0 -10 4 -7 10 4 6 -1 7 -10 3 -10 -3 -21 0
-27 8 -7 11 -11 11 -15 2 -2 -7 -12 -13 -22 -13 -19 0 -71 49 -71 67 0 15 -21
22 -43 14 -17 -6 -17 -8 2 -25 16 -15 18 -21 8 -37 -10 -16 -9 -21 2 -28 11
-7 11 -15 2 -41 -11 -34 -9 -41 27 -78 16 -18 15 -27 -4 -46 -28 -28 -80 -12
-67 20 3 8 -1 14 -10 14 -8 0 -17 6 -20 13 -2 6 -8 8 -13 4 -4 -4 -3 -17 4
-27 19 -31 14 -35 -10 -9 -18 20 -20 21 -13 4 16 -41 16 -62 1 -74 -14 -12
-19 -11 -36 4 -11 10 -20 27 -20 37 0 10 -12 42 -26 71 -24 47 -26 56 -15 95
13 49 15 182 3 182 -5 0 -6 21 -2 46 6 41 5 45 -11 41 -14 -4 -19 0 -19 16 -1
16 -7 10 -25 -23 -19 -35 -24 -40 -25 -22 0 25 -8 28 -24 8 -6 -8 -35 -16 -64
-19 -52 -4 -54 -3 -49 18 4 24 -12 25 -41 1 -10 -7 -13 -6 -12 5 5 33 0 39
-26 33 -20 -5 -26 -2 -31 15 -3 11 -9 21 -14 21 -5 0 -9 6 -9 14 0 8 -5 18
-12 22 -7 5 -9 2 -6 -8 4 -8 2 -21 -3 -29 -6 -10 -9 -11 -10 -1 -1 6 -2 17 -3
24 -2 23 -26 20 -26 -4 -1 -33 -23 -58 -53 -58 -31 0 -58 -10 -53 -19 3 -4 0
-13 -5 -21 -8 -13 -10 -13 -18 -1 -5 8 -7 21 -4 30 7 24 -45 -39 -62 -76 -20
-41 -19 -83 2 -113 99 -147 189 -250 218 -250 6 0 45 -23 86 -52 81 -57 180
-98 236 -98 76 0 108 -19 220 -129 191 -187 226 -233 331 -426 90 -163 220
-452 232 -513 5 -26 16 -69 25 -96 24 -78 21 -96 -17 -96 -18 0 -52 8 -75 18
-42 17 -56 32 -29 32 7 0 19 6 25 14 9 11 4 22 -24 51 -19 21 -35 41 -35 44 0
3 -20 27 -45 54 -24 26 -50 55 -57 65 -16 21 -114 82 -134 82 -8 0 -22 8 -32
18 -10 10 -25 22 -33 25 -8 4 -27 16 -44 27 -16 11 -38 23 -47 26 -10 4 -18
10 -18 15 0 5 -7 9 -16 9 -9 0 -29 9 -45 21 -17 12 -39 19 -49 16 -11 -3 -20
-1 -20 4 0 5 -7 9 -16 9 -10 0 -14 -6 -10 -15 3 -9 -5 -21 -22 -32 -15 -10
-33 -26 -40 -35 -16 -22 -32 -23 -32 -3 0 22 -18 18 -25 -5 -6 -18 -8 -18 -21
-5 -8 8 -21 12 -28 9 -8 -3 -17 -1 -21 5 -3 6 -21 11 -40 11 -19 0 -37 5 -40
10 -3 6 -15 10 -26 10 -10 0 -19 -4 -19 -10 0 -5 5 -10 10 -10 6 0 10 -6 10
-12 0 -10 -22 -12 -85 -11 -47 2 -85 -1 -85 -5 0 -4 8 -8 18 -9 9 0 32 -7 49
-14 25 -10 42 -11 72 -3 32 9 45 7 75 -8 20 -10 36 -20 36 -22 0 -2 -48 -3
-107 -1 -60 1 -116 -1 -125 -7 -12 -6 -18 -5 -18 3 0 8 -4 8 -15 -1 -13 -11
-15 -8 -15 13 0 15 8 42 18 61 17 35 64 71 76 59 3 -3 6 3 6 15 0 12 9 31 21
43 11 11 18 23 16 26 -3 3 -43 7 -89 10 -79 5 -85 7 -114 39 -23 24 -40 34
-62 34 -30 0 -92 28 -92 42 0 13 -111 31 -123 19 -17 -17 -52 -13 -80 9 -23
19 -27 19 -41 4 -15 -14 -19 -14 -39 -1 -14 9 -49 15 -96 15 -40 1 -75 2 -76
4 -2 2 -7 44 -12 93 -8 74 -7 112 9 210 11 66 22 144 25 173 4 43 9 52 25 52
33 0 78 29 78 51 0 16 -4 19 -20 14 -15 -5 -20 -2 -20 12 0 15 -2 16 -10 3
-13 -20 -13 -4 0 21 11 19 40 27 40 10 0 -5 9 -11 20 -14 22 -6 23 -5 40 171
7 63 9 129 6 147 -6 32 -41 65 -68 65 -10 0 -13 36 -13 163 l0 162 -39 95
c-39 98 -83 184 -114 222 -33 42 -107 109 -137 125 -16 9 -32 19 -35 23 -19
29 -179 92 -300 119 -55 13 -180 12 -235 0z m425 -199 c0 -5 -4 -10 -10 -10
-5 0 -10 5 -10 10 0 6 5 10 10 10 6 0 10 -4 10 -10z m136 -38 c25 -25 33 -40
28 -55 -5 -16 -3 -19 10 -14 11 4 16 1 16 -10 0 -21 29 -53 47 -53 13 0 12
-21 -3 -68 -2 -7 1 -10 6 -7 6 3 10 13 10 21 0 8 7 14 16 14 11 0 15 -6 11
-20 -3 -11 -1 -20 5 -20 6 0 8 -9 5 -21 -8 -29 3 -56 14 -37 6 9 9 7 9 -8 0
-17 -5 -20 -25 -16 -14 2 -26 12 -26 21 -1 14 -2 13 -6 -1 -5 -20 -16 -22 -42
-9 -12 7 -26 6 -42 -3 -13 -7 -44 -12 -69 -11 -35 1 -45 5 -44 18 1 12 -6 17
-23 17 -21 0 -23 3 -14 14 10 12 6 15 -19 21 -16 4 -30 13 -30 20 0 7 -7 15
-15 19 -8 3 -14 9 -13 13 6 19 -71 80 -94 75 -5 -1 -8 4 -8 12 0 8 -6 17 -12
19 -10 4 -10 7 0 15 7 5 10 16 6 25 -9 24 5 41 22 26 8 -6 17 -9 21 -6 3 4 13
1 21 -5 11 -10 17 -8 28 7 8 10 14 16 14 12 0 -18 2 -23 16 -30 8 -5 12 -12 9
-18 -4 -5 4 -9 17 -9 l22 0 -22 16 c-26 18 -31 49 -6 40 10 -4 22 1 31 11 10
13 16 15 19 6 6 -15 34 -18 34 -4 0 5 -6 12 -12 15 -7 2 2 4 21 3 23 -1 44
-12 67 -35z m-526 -28 c0 -8 -5 -12 -10 -9 -6 4 -8 11 -5 16 9 14 15 11 15 -7z
m80 4 c0 -7 -11 -14 -24 -14 -17 -1 -23 2 -19 12 6 17 43 19 43 2z m-243 -48
c5 -17 7 -18 27 -5 11 7 39 17 60 21 34 6 38 5 33 -9 -3 -9 -2 -19 4 -22 5 -4
6 -11 3 -17 -4 -6 -7 -21 -8 -34 -1 -12 -14 -37 -30 -55 -18 -20 -23 -30 -13
-26 22 8 21 1 -3 -30 -11 -14 -20 -31 -20 -38 0 -16 -45 -39 -59 -31 -8 5 -8
13 -1 27 9 16 7 19 -9 19 -13 0 -23 -9 -27 -24 -3 -14 -12 -27 -20 -30 -16 -6
-47 21 -39 35 4 5 -2 9 -13 9 -15 0 -19 7 -18 28 1 21 -4 27 -19 27 -21 0 -22
-3 -24 -75 -2 -42 -3 -44 -16 -26 -8 11 -15 27 -15 37 0 9 -10 20 -22 23 -22
6 -22 7 -5 20 13 10 15 21 11 45 -4 20 -3 31 5 31 6 0 20 18 31 39 20 41 41
52 100 56 19 1 36 7 38 14 6 19 43 13 49 -9z m-247 -100 c0 -5 -5 -10 -11 -10
-5 0 -7 5 -4 10 3 6 8 10 11 10 2 0 4 -4 4 -10z m1107 -166 c23 -25 23 -25 2
-22 -12 2 -26 13 -30 26 -11 29 -2 28 28 -4z m-280 -17 c3 -4 -1 -7 -10 -7
-21 0 -21 -7 -2 -26 11 -12 12 -19 3 -33 -6 -11 -18 -17 -25 -14 -9 4 -16 -3
-20 -16 -5 -21 -27 -27 -57 -15 -22 9 -20 24 4 24 13 0 18 5 14 15 -4 8 -1 22
6 30 7 9 10 18 7 22 -4 3 -2 12 4 19 11 13 63 14 76 1z m-399 -29 c17 -17 15
-38 -3 -38 -8 0 -15 -7 -15 -15 0 -18 -12 -19 -27 -4 -8 8 -7 19 4 40 16 32
23 35 41 17z m29 -130 c-4 -14 0 -22 14 -25 10 -3 19 -11 19 -18 0 -17 -118
-55 -142 -46 -16 6 -12 12 31 46 27 22 52 48 55 59 3 10 9 15 16 11 7 -4 9
-16 7 -27z m323 6 c0 -14 3 -14 15 -4 10 9 15 9 15 1 0 -6 7 -11 15 -11 8 0
15 -7 15 -15 0 -7 7 -18 17 -23 22 -13 9 -42 -18 -42 -48 0 -87 22 -91 51 -5
30 7 59 22 59 6 0 10 -7 10 -16z m227 -4 c10 -11 23 -20 30 -20 14 0 18 -56 5
-64 -5 -3 -28 0 -52 6 -36 9 -40 13 -27 23 15 11 15 14 0 34 -15 22 -15 23 8
17 13 -3 18 -3 12 0 -7 3 -13 10 -13 15 0 16 19 10 37 -11z m-799 -60 c-1 -16
-4 -30 -9 -30 -4 0 -14 -3 -23 -6 -28 -11 -32 26 -5 47 33 25 38 24 37 -11z
m42 -10 c0 -5 -2 -10 -4 -10 -3 0 -8 5 -11 10 -3 6 -1 10 4 10 6 0 11 -4 11
-10z m340 -5 c0 -8 -4 -15 -10 -15 -5 0 -10 7 -10 15 0 8 5 15 10 15 6 0 10
-7 10 -15z m-450 -9 c0 -8 -4 -17 -9 -21 -12 -7 -24 12 -16 25 9 15 25 12 25
-4z m2050 -101 c6 -8 10 -21 8 -30 -2 -12 -8 -8 -21 14 -18 31 -9 43 13 16z
m-2386 -68 c-2 -45 -25 -76 -41 -55 -6 7 -13 32 -16 56 l-5 43 31 -3 c30 -3
32 -5 31 -41z m-438 -24 c17 -17 16 -18 -15 -21 -40 -4 -48 2 -31 23 16 19 25
19 46 -2z m1234 -65 c-1 -31 -2 -32 -15 -15 -7 11 -11 25 -8 33 10 25 23 15
23 -18z m42 -3 c-6 -32 -17 -32 -18 0 -1 14 4 25 11 25 8 0 10 -9 7 -25z
m1425 -25 c12 -31 21 -40 40 -40 12 0 23 -4 23 -9 0 -5 12 -11 28 -14 42 -10
56 -22 47 -43 -5 -11 -8 -22 -7 -26 1 -3 -5 -12 -13 -18 -12 -10 -15 -10 -15
-1 0 8 -8 10 -21 6 -14 -5 -39 1 -70 15 -50 24 -83 22 -73 -5 8 -19 -5 -19
-30 0 -34 26 -43 16 -11 -11 l30 -26 -33 18 c-85 48 -44 194 55 194 31 0 36
-4 50 -40z m-990 14 c-3 -3 -12 -4 -19 -1 -8 3 -5 6 6 6 11 1 17 -2 13 -5z
m-433 -108 c-3 -14 -12 -26 -20 -26 -17 0 -17 10 -4 46 14 35 34 18 24 -20z
m141 14 c3 -5 -1 -10 -10 -10 -9 0 -13 5 -10 10 3 6 8 10 10 10 2 0 7 -4 10
-10z m1469 -24 c-3 -9 -12 -16 -20 -16 -20 0 -17 28 4 32 22 5 24 4 16 -16z
m-1424 0 c0 -2 -7 -6 -15 -10 -8 -3 -15 -1 -15 4 0 6 7 10 15 10 8 0 15 -2 15
-4z m-1355 -32 c29 -19 36 -74 10 -74 -8 0 -15 -4 -15 -9 0 -5 -15 -12 -33
-15 -19 -3 -43 -17 -55 -31 -12 -14 -27 -25 -33 -25 -5 0 -8 -4 -4 -9 13 -21
-33 -31 -87 -19 -29 6 -59 11 -66 9 -6 -1 -17 10 -23 25 -16 43 4 75 69 114
63 38 120 44 151 16 25 -23 38 -20 45 9 8 30 9 30 41 9z m1413 9 c-10 -2 -26
-2 -35 0 -10 3 -2 5 17 5 19 0 27 -2 18 -5z m132 -4 c0 -14 -31 -45 -53 -52
-20 -8 -67 11 -67 27 0 6 10 16 23 21 29 13 97 16 97 4z m-1240 -23 c6 -8 21
-17 33 -19 20 -3 19 -5 -8 -16 -16 -7 -45 -10 -63 -7 -33 5 -33 4 -20 -17 20
-30 76 -57 119 -57 l35 0 23 -146 c13 -80 25 -214 28 -298 l6 -153 -24 -6
c-13 -4 -35 -7 -48 -7 -13 0 -43 -10 -67 -22 -38 -19 -48 -20 -83 -10 -34 11
-44 10 -73 -7 -32 -18 -89 -30 -177 -37 -33 -2 -52 -10 -75 -33 -23 -22 -42
-31 -66 -31 -20 0 -46 -10 -66 -25 -17 -13 -52 -27 -75 -31 -42 -6 -99 -29
-99 -39 0 -11 76 -35 111 -35 54 0 79 -27 79 -85 0 -54 -22 -70 -92 -66 -29 2
-48 -2 -48 -8 0 -16 -35 -13 -70 7 -30 16 -32 16 -45 -1 -12 -16 -14 -17 -22
-3 -7 13 -15 14 -43 6 -19 -6 -47 -8 -62 -4 -16 3 -28 1 -28 -4 0 -14 -57 -20
-97 -11 -28 6 -32 5 -22 -7 6 -8 8 -14 5 -14 -12 0 -86 45 -86 51 0 4 16 10
35 13 47 9 45 26 -2 20 -65 -9 -115 -27 -140 -52 -20 -20 -30 -23 -64 -17 -36
6 -40 5 -37 -11 2 -12 -6 -23 -19 -29 -13 -5 -23 -13 -23 -18 0 -4 -11 -19
-25 -33 -27 -27 -34 -60 -11 -51 29 11 24 -7 -7 -23 -19 -10 -33 -27 -35 -40
-2 -14 0 -20 7 -16 6 4 11 3 11 -2 0 -5 20 -12 45 -15 62 -9 122 -42 140 -77
19 -37 14 -46 -28 -55 -17 -4 -37 -11 -42 -16 -12 -9 -237 -40 -244 -33 -7 7
20 105 44 159 12 28 26 61 30 75 4 14 17 39 29 55 12 17 28 48 35 70 27 79
186 384 263 504 15 25 28 52 28 61 0 10 7 23 15 30 8 7 15 19 15 26 0 7 11 21
26 30 14 9 32 31 41 48 17 33 58 81 135 158 25 25 49 55 52 66 4 11 27 37 52
57 38 31 50 36 77 31 87 -17 138 -18 187 -2 66 22 278 126 359 176 37 23 72
38 82 35 9 -3 22 1 29 10 16 19 44 19 60 1z m863 -19 c-1 -15 2 -27 7 -27 5 0
7 -7 4 -15 -4 -8 -10 -15 -15 -15 -5 0 -9 7 -9 15 0 8 -6 15 -13 15 -9 0 -14
12 -15 31 -1 26 3 30 21 27 17 -2 22 -9 20 -31z m1614 11 c-3 -8 -6 -5 -6 6
-1 11 2 17 5 13 3 -3 4 -12 1 -19z m-1695 -51 c-17 -20 9 -42 53 -43 22 -1 57
-4 78 -7 22 -3 37 -1 37 5 0 6 7 8 15 5 8 -4 17 -2 20 3 9 15 35 12 35 -4 0
-22 -51 -57 -80 -55 -14 1 -38 -2 -53 -6 -17 -4 -33 -3 -39 3 -6 6 -21 7 -38
2 -21 -6 -32 -4 -41 6 -7 9 -24 12 -48 9 -42 -6 -91 11 -91 31 0 16 36 19 45
4 3 -5 19 -10 36 -10 27 0 29 3 29 35 0 31 3 35 26 35 20 0 24 -3 16 -13z
m2408 -314 c0 -13 14 -36 30 -51 23 -22 30 -38 30 -66 0 -46 -12 -46 -29 2 -8
20 -25 47 -39 59 -17 14 -23 28 -19 42 3 14 0 21 -9 21 -14 0 -19 21 -8 33 12
11 44 -18 44 -40z m-1819 -296 c-1 -12 -15 -9 -19 4 -3 6 1 10 8 8 6 -3 11 -8
11 -12z m2089 -32 c7 -8 20 -15 29 -15 9 0 21 -11 28 -25 10 -23 9 -25 -14
-25 -13 0 -31 7 -39 15 -20 20 -34 19 -34 -2 0 -9 -2 -14 -5 -12 -7 8 7 79 15
79 4 0 13 -7 20 -15z m50 -95 c0 -11 -7 -20 -15 -20 -15 0 -21 21 -8 33 12 13
23 7 23 -13z m165 -40 c3 -5 1 -10 -4 -10 -6 0 -11 5 -11 10 0 6 2 10 4 10 3
0 8 -4 11 -10z m103 -223 c-4 -21 -1 -23 21 -19 14 3 31 9 37 14 15 11 44 -17
44 -43 0 -11 7 -22 15 -25 18 -7 20 -31 3 -37 -10 -3 -11 -13 -1 -48 6 -24 10
-46 7 -48 -8 -9 -33 22 -39 50 -9 39 -49 78 -87 86 -24 5 -29 10 -26 28 4 18
1 21 -15 17 -15 -4 -18 -2 -12 9 28 44 60 54 53 16z m-648 -494 c0 -7 -4 -13
-10 -13 -5 0 -10 9 -10 20 0 11 -5 20 -11 20 -5 0 -7 5 -3 12 8 13 34 -17 34
-39z m158 -1 c2 -7 -3 -12 -11 -12 -8 0 -17 -7 -21 -15 -7 -19 -36 -20 -36 -1
0 17 40 48 54 43 5 -2 12 -9 14 -15z m-2478 -141 c0 -5 -7 -12 -16 -15 -22 -9
-24 -8 -24 9 0 8 9 15 20 15 11 0 20 -4 20 -9z m-4 -49 c-3 -6 -16 -8 -27 -5
-21 6 -21 7 -4 20 20 14 42 3 31 -15z m1044 -1 c0 -5 -6 -13 -12 -18 -29 -22
-223 -71 -235 -59 -14 13 15 27 113 52 54 14 101 28 103 30 8 8 31 4 31 -5z
m10 -52 c0 -14 -48 -33 -152 -60 -82 -21 -114 -21 -92 1 10 10 199 68 227 69
9 1 17 -4 17 -10z m-301 -18 c12 -8 12 -12 2 -25 -7 -9 -18 -13 -23 -10 -6 4
-14 0 -19 -7 -7 -12 -11 -11 -24 2 -15 14 -15 17 0 29 13 11 15 10 9 -4 -3 -9
-1 -16 5 -16 6 0 11 4 11 9 0 5 10 7 23 4 21 -4 22 -4 3 11 -21 17 -11 22 13
7z m306 -40 c-12 -11 -154 -56 -208 -66 -29 -6 -37 -4 -37 7 0 18 230 89 245
76 6 -5 6 -11 0 -17z m-417 -6 c-3 -3 -9 2 -12 12 -6 14 -5 15 5 6 7 -7 10
-15 7 -18z m-22 -12 c-4 -9 -1 -23 6 -31 8 -10 9 -13 1 -9 -6 4 -13 4 -16 0
-2 -5 -3 -3 -1 3 1 6 -3 17 -9 23 -8 8 -8 11 2 11 8 0 11 6 7 16 -3 9 -2 12 5
9 6 -4 8 -14 5 -22z m53 4 c-2 -1 -13 -9 -24 -17 -19 -14 -19 -14 -6 3 7 9 18
17 24 17 6 0 8 -1 6 -3z m77 -9 c4 -7 3 -8 -5 -4 -6 4 -18 2 -26 -4 -9 -8 -15
-8 -15 -2 0 9 15 19 32 21 4 1 10 -4 14 -11z m38 1 c-3 -6 -1 -14 5 -18 7 -5
5 -14 -9 -29 -24 -25 -25 -32 -5 -32 8 0 15 8 15 18 0 14 2 14 9 3 8 -13 27
-10 123 18 135 39 143 40 143 23 0 -8 -18 -20 -40 -28 -51 -18 -397 -104 -419
-104 -20 0 -21 17 -1 36 8 9 15 11 15 6 0 -5 29 -2 65 6 36 9 65 21 65 28 0 6
7 17 15 24 8 7 15 18 15 24 0 6 -11 -1 -24 -16 -20 -23 -26 -25 -36 -13 -16
19 -3 37 20 30 13 -4 22 1 30 15 6 11 13 20 16 20 3 0 2 -5 -2 -11z m-94 -2
c0 -2 -11 -14 -25 -27 -14 -13 -25 -21 -25 -17 0 3 10 15 22 27 21 19 28 24
28 17z m-1837 -45 c-8 -59 6 -65 180 -74 188 -11 227 -23 102 -32 -49 -3 -135
-11 -191 -17 -126 -14 -157 -4 -162 52 -3 30 3 42 33 72 21 21 38 37 40 37 2
0 1 -17 -2 -38z m1833 3 c-8 -8 -18 -15 -22 -15 -3 0 -1 7 6 15 7 8 17 15 22
15 5 0 3 -7 -6 -15z m-51 -15 c3 -5 1 -10 -4 -10 -6 0 -11 5 -11 10 0 6 2 10
4 10 3 0 8 -4 11 -10z m442 -7 c5 -13 -81 -42 -227 -78 -58 -14 -131 -32 -162
-40 -68 -18 -98 -19 -98 -5 0 15 27 24 218 70 95 23 189 47 210 55 41 15 54
14 59 -2z m-362 -3 c3 -6 -1 -7 -9 -4 -18 7 -21 14 -7 14 6 0 13 -4 16 -10z
m365 -44 c0 -22 -100 -53 -357 -111 -132 -30 -123 -29 -123 -10 0 8 10 17 23
20 192 42 333 79 407 104 37 13 50 12 50 -3z m-1650 -698 c0 -56 -29 -260 -54
-388 -16 -80 -43 -212 -51 -246 -3 -12 -34 -39 -77 -66 l-73 -46 -170 -4 -169
-5 -53 50 c-40 38 -53 57 -53 79 0 40 108 580 118 590 11 11 230 34 238 25 4
-4 0 -32 -9 -64 -14 -50 -97 -451 -97 -467 0 -4 25 -6 55 -6 30 0 55 1 55 3 0
10 34 187 58 302 17 77 33 163 37 192 4 29 12 56 18 61 10 9 36 15 142 36 11
2 35 4 53 5 l32 1 0 -52z m1265 -28 c66 -11 125 -26 132 -33 6 -7 23 -57 38
-112 25 -95 92 -318 157 -525 16 -52 32 -107 35 -122 l5 -28 -78 1 c-44 0 -99
4 -124 7 -43 7 -46 9 -65 59 -20 52 -21 53 -75 64 -30 6 -64 13 -75 15 -17 4
-23 -3 -33 -42 l-13 -47 -72 7 c-122 11 -179 25 -173 43 9 21 55 210 111 448
70 302 65 285 89 285 11 0 75 -9 141 -20z m-559 -18 c10 -10 38 -38 62 -63
l43 -46 -12 -66 -12 -67 -59 0 -59 0 51 -62 c30 -38 50 -73 50 -88 0 -14 -7
-89 -16 -168 l-17 -142 -63 -40 -62 -39 -109 14 c-59 7 -146 17 -192 21 l-83
7 -59 56 -59 56 12 77 c10 73 12 76 41 82 16 3 43 6 60 6 l31 0 -51 48 -51 47
24 119 c16 78 30 125 42 135 120 108 130 113 210 121 42 4 118 8 168 9 75 1
94 -2 110 -17z m-736 -1112 c-12 -8 -12 -10 5 -10 11 0 38 -3 60 -6 32 -4 37
-3 25 6 -17 13 -11 11 44 -14 22 -10 51 -16 64 -13 16 3 32 -2 45 -13 17 -17
19 -27 12 -84 -4 -45 -3 -66 4 -66 7 0 11 -21 11 -52 -1 -47 -2 -51 -13 -31
-11 19 -12 16 -14 -30 -1 -31 1 -47 6 -39 17 28 -14 -413 -39 -543 l-9 -50 3
63 c4 94 -12 50 -19 -53 -5 -65 -4 -86 4 -75 8 11 11 -2 11 -52 l0 -67 -32 5
c-18 3 -51 6 -73 8 -105 9 -157 19 -144 27 12 7 11 11 -1 19 -11 7 -12 12 -3
18 15 10 25 64 13 72 -5 3 -6 32 -3 63 3 32 9 53 13 46 5 -7 11 6 15 30 4 23
4 45 1 48 -3 4 -6 -6 -6 -20 0 -15 -4 -27 -10 -27 -5 0 -7 21 -4 48 9 92 25
279 35 407 7 94 14 132 25 138 22 12 17 33 -8 33 -106 1 -108 2 -108 39 0 18
6 38 14 42 19 12 28 93 10 93 -8 0 -14 5 -14 11 0 5 4 7 10 4 5 -3 20 3 32 14
12 12 29 21 37 21 14 0 14 -1 1 -10z m934 -31 c14 -7 23 -16 20 -20 -3 -5 0
-9 6 -9 20 0 97 -65 92 -78 -2 -7 1 -18 6 -25 11 -13 2 -349 -19 -702 -14
-232 -16 -237 -86 -251 -18 -3 -33 -10 -33 -16 0 -5 -4 -6 -10 -3 -5 3 -10 0
-10 -8 0 -8 -11 -22 -25 -31 -28 -19 -97 -13 -116 10 -13 16 -65 19 -74 4 -8
-12 -85 -13 -85 -1 0 5 -10 9 -22 9 -35 0 -113 25 -130 42 -9 8 -41 32 -72 53
-40 27 -56 45 -56 60 0 18 2 19 10 7 7 -10 8 0 5 35 -3 36 -2 41 3 20 7 -27 9
-25 14 25 3 32 1 61 -5 72 -8 12 -8 44 1 115 7 54 13 114 13 133 l1 35 7 -30
c11 -45 35 187 29 269 -3 36 -2 66 3 66 5 0 9 11 9 24 0 13 6 27 13 30 6 3 1
3 -13 0 -24 -5 -24 -4 -7 10 11 8 26 12 35 9 9 -4 13 -2 9 4 -4 6 10 26 31 45
20 19 42 43 48 54 14 24 60 32 189 34 55 1 111 6 125 10 37 12 66 11 94 -1z
m-1007 -81 c-3 -7 -5 -2 -5 12 0 14 2 19 5 13 2 -7 2 -19 0 -25z m350 -40 c-3
-7 -5 -2 -5 12 0 14 2 19 5 13 2 -7 2 -19 0 -25z m100 -350 c-2 -13 -4 -3 -4
22 0 25 2 35 4 23 2 -13 2 -33 0 -45z"/>
<path d="M3505 6130 c-3 -5 -1 -10 4 -10 6 0 11 5 11 10 0 6 -2 10 -4 10 -3 0
-8 -4 -11 -10z"/>
<path d="M3431 6111 c-8 -5 -9 -11 -3 -15 5 -3 15 1 22 9 14 16 3 20 -19 6z"/>
<path d="M3660 5880 c0 -5 5 -10 10 -10 6 0 10 5 10 10 0 6 -4 10 -10 10 -5 0
-10 -4 -10 -10z"/>
<path d="M2946 6035 c-11 -8 -14 -15 -8 -15 7 0 12 -4 12 -10 0 -5 -7 -10 -15
-10 -8 0 -15 -9 -15 -20 0 -16 4 -18 22 -11 17 6 23 17 26 45 3 41 3 40 -22
21z"/>
<path d="M2720 5946 c0 -9 5 -16 10 -16 6 0 10 4 10 9 0 6 -4 13 -10 16 -5 3
-10 -1 -10 -9z"/>
<path d="M2910 5879 c0 -5 5 -7 10 -4 6 3 10 8 10 11 0 2 -4 4 -10 4 -5 0 -10
-5 -10 -11z"/>
<path d="M2400 5060 c0 -5 5 -10 10 -10 6 0 10 5 10 10 0 6 -4 10 -10 10 -5 0
-10 -4 -10 -10z"/>
<path d="M1425 3930 c-3 -5 -1 -10 4 -10 6 0 11 5 11 10 0 6 -2 10 -4 10 -3 0
-8 -4 -11 -10z"/>
<path d="M3940 3170 c0 -5 5 -10 10 -10 6 0 10 5 10 10 0 6 -4 10 -10 10 -5 0
-10 -4 -10 -10z"/>
<path d="M2585 2418 c-16 -5 -55 -15 -85 -22 -54 -12 -55 -12 -62 -56 -5 -25
-18 -85 -29 -135 -11 -49 -23 -101 -25 -115 -19 -106 -47 -237 -53 -249 -5
-11 -25 -14 -77 -12 -38 1 -72 6 -77 10 -4 4 2 52 12 107 11 54 23 115 26 134
3 19 17 89 30 155 14 66 25 122 25 126 0 7 -177 -15 -186 -23 -3 -4 -19 -71
-34 -150 -15 -79 -37 -186 -48 -238 -11 -52 -23 -119 -27 -149 l-7 -55 47 -42
48 -42 151 5 c168 5 189 7 208 26 7 7 30 23 50 36 27 16 40 33 47 59 12 47 50
246 56 292 2 19 15 102 29 184 15 82 26 153 26 158 0 10 -6 9 -45 -4z"/>
<path d="M3771 2356 c-5 -6 -14 -42 -20 -81 -7 -38 -27 -126 -46 -195 -18 -69
-43 -170 -55 -225 -13 -55 -29 -114 -36 -132 -28 -64 -24 -69 82 -82 52 -6
100 -9 105 -6 5 4 12 24 15 47 l7 40 41 -6 c56 -7 136 -25 146 -31 5 -3 16
-27 25 -54 15 -47 17 -49 62 -55 80 -11 156 -8 150 7 -2 6 -12 39 -22 72 -10
33 -32 107 -50 165 -32 102 -58 192 -110 375 -30 104 -44 136 -59 133 -6 0
-18 2 -26 5 -39 15 -201 33 -209 23z m150 -303 c15 -46 16 -48 66 -58 29 -5
55 -13 58 -17 4 -4 -12 -16 -35 -28 -44 -22 -44 -24 -25 -87 10 -31 -12 -30
-46 3 -26 25 -28 25 -57 10 -55 -28 -58 -23 -37 54 2 9 -10 26 -30 40 -48 35
-46 52 7 48 42 -3 43 -3 56 40 8 23 17 42 21 42 4 0 14 -21 22 -47z"/>
<path d="M3155 2340 c-27 -5 -69 -9 -92 -9 -36 -1 -54 -10 -113 -57 -39 -31
-73 -66 -75 -78 -3 -12 -14 -63 -24 -113 l-18 -93 42 -39 42 -38 133 -1 c147
-1 151 -3 143 -61 -8 -62 -8 -62 -65 -57 -29 2 -72 5 -96 5 -41 1 -43 2 -40
29 l3 27 -89 3 c-49 2 -93 -1 -98 -6 -4 -4 -11 -35 -14 -68 -6 -59 -6 -61 27
-93 52 -50 76 -58 184 -65 55 -4 131 -12 168 -17 83 -13 101 -9 154 39 l42 37
15 139 16 138 -35 48 c-54 74 -50 72 -196 71 l-131 -1 7 43 c4 23 12 45 17 48
5 3 45 7 89 8 74 2 79 1 79 -18 0 -12 6 -21 13 -21 45 -2 145 -11 158 -16 19
-5 29 21 29 77 0 30 -9 44 -56 92 -56 56 -57 57 -113 56 -31 -1 -78 -5 -106
-9z"/>
<path d="M3094 2153 c-21 -4 -40 -39 -26 -47 4 -2 41 0 82 4 41 4 69 8 63 9
-7 0 -13 10 -13 21 0 17 -6 20 -42 19 -24 -1 -53 -4 -64 -6z"/>
<path d="M3243 2113 c9 -2 23 -2 30 0 6 3 -1 5 -18 5 -16 0 -22 -2 -12 -5z"/>
<path d="M3026 1893 c-1 -2 -1 -16 2 -32 4 -28 7 -30 64 -36 32 -4 61 -5 63
-3 2 2 5 17 7 33 l3 30 -68 5 c-38 3 -70 4 -71 3z"/>
<path d="M2841 704 c0 -11 3 -14 6 -6 3 7 2 16 -1 19 -3 4 -6 -2 -5 -13z"/>
<path d="M2791 174 c0 -11 3 -14 6 -6 3 7 2 16 -1 19 -3 4 -6 -2 -5 -13z"/>
<path d="M3448 1193 c7 -3 16 -2 19 1 4 3 -2 6 -13 5 -11 0 -14 -3 -6 -6z"/>
<path d="M3373 1183 c9 -2 23 -2 30 0 6 3 -1 5 -18 5 -16 0 -22 -2 -12 -5z"/>
<path d="M3265 965 c-5 -17 -25 -258 -25 -292 0 -23 -5 -33 -15 -33 -8 0 -15
-4 -15 -10 0 -5 5 -10 10 -10 13 0 12 -57 -4 -205 -7 -66 -12 -121 -12 -122 1
-1 34 -5 75 -9 41 -3 85 -13 99 -20 28 -14 46 -9 22 6 -13 8 -12 10 3 10 11 0
17 8 16 23 0 21 -1 21 -9 2 -13 -31 -12 53 4 275 8 107 17 241 21 296 l6 101
-87 -1 c-48 0 -88 -5 -89 -11z"/>
<path d="M3232 830 c0 -19 2 -27 5 -17 2 9 2 25 0 35 -3 9 -5 1 -5 -18z"/>
<path d="M3223 705 c0 -33 2 -45 4 -27 2 18 2 45 0 60 -2 15 -4 0 -4 -33z"/>
<path d="M3196 418 c-10 -31 -15 -102 -7 -88 10 18 23 100 16 100 -3 0 -7 -6
-9 -12z"/>
<path d="M3293 263 c9 -2 25 -2 35 0 9 3 1 5 -18 5 -19 0 -27 -2 -17 -5z"/>
<path d="M4822 5873 c-7 -3 -29 -21 -50 -40 -31 -31 -34 -35 -14 -30 19 4 21
3 11 -9 -14 -18 -10 -18 33 0 38 16 104 73 95 82 -3 3 -15 1 -26 -6 -14 -7
-21 -7 -21 0 0 11 -7 12 -28 3z"/>
<path d="M1957 5803 c-16 -15 -4 -40 40 -80 25 -24 50 -43 54 -43 3 0 12 -7
19 -15 21 -25 32 -17 25 18 -12 54 -42 94 -85 111 -46 18 -45 18 -53 9z"/>
<path d="M4800 5728 c-41 -44 -10 -64 50 -33 33 17 39 39 14 49 -27 10 -43 7
-64 -16z"/>
<path d="M4360 5619 c-13 -22 -5 -58 9 -43 14 15 22 64 12 64 -6 0 -15 -9 -21
-21z"/>
<path d="M1740 5345 c0 -8 6 -15 14 -15 8 0 16 7 20 15 4 10 -1 15 -14 15 -11
0 -20 -7 -20 -15z"/>
<path d="M5027 5296 c-7 -17 22 -31 36 -17 6 6 2 13 -11 20 -15 8 -21 7 -25
-3z"/>
<path d="M4740 4244 c0 -10 71 -34 101 -34 18 0 30 2 28 5 -7 7 -129 34 -129
29z"/>
<path d="M6152 4174 c-11 -12 -9 -14 8 -14 11 0 20 4 20 9 0 17 -15 19 -28 5z"/>
</g>
</svg>
